# xmcd CD database file
#
# Track frame offsets:
#	150
#	26672
#	50553
#	80355
#	107234
#	132720
#	167784
#	195382
#	215646
#	240680
#	260676
#	280753
#
# Disc length: 4102 seconds
#
# Revision: 0
# Processed by: cddbd v1.5.2PL0 Copyright (c) Steve Scherf et al.
# Submitted via: CDex 1.51
#
DISCID=b310040c
DTITLE=Pat O'May - In live we trust
DYEAR=2010
DGENRE=Blues
TTITLE0=Free to race
TTITLE1=Pleasure palace
TTITLE2=Surrender
TTITLE3=Wind
TTITLE4=The days
TTITLE5=Blood
TTITLE6=Breizh land
TTITLE7=All you trust
TTITLE8=The door
TTITLE9=Watch out
TTITLE10=Hortefire
TTITLE11=Overlord
EXTD=YEAR: 2010
EXTT0=
EXTT1=
EXTT2=
EXTT3=
EXTT4=
EXTT5=
EXTT6=
EXTT7=
EXTT8=
EXTT9=
EXTT10=
EXTT11=
PLAYORDER=
